<svg width="233" height="158" viewBox="0 0 233 158" fill="none" xmlns="http://www.w3.org/2000/svg">
<g filter="url(#filter0_bd_103_614)">
<g filter="url(#filter1_d_103_614)">
<path d="M30.5544 48.92C30.5544 46.1467 31.1544 43.68 32.3544 41.52C33.5544 39.3333 35.221 37.64 37.3544 36.44C39.5144 35.2133 41.9544 34.6 44.6744 34.6C48.0077 34.6 50.861 35.48 53.2344 37.24C55.6077 39 57.1944 41.4 57.9944 44.44H50.4744C49.9144 43.2667 49.1144 42.3733 48.0744 41.76C47.061 41.1467 45.901 40.84 44.5944 40.84C42.4877 40.84 40.781 41.5733 39.4744 43.04C38.1677 44.5067 37.5144 46.4667 37.5144 48.92C37.5144 51.3733 38.1677 53.3333 39.4744 54.8C40.781 56.2667 42.4877 57 44.5944 57C45.901 57 47.061 56.6933 48.0744 56.08C49.1144 55.4667 49.9144 54.5733 50.4744 53.4H57.9944C57.1944 56.44 55.6077 58.84 53.2344 60.6C50.861 62.3333 48.0077 63.2 44.6744 63.2C41.9544 63.2 39.5144 62.6 37.3544 61.4C35.221 60.1733 33.5544 58.48 32.3544 56.32C31.1544 54.16 30.5544 51.6933 30.5544 48.92ZM65.6231 38.36C64.4231 38.36 63.4365 38.0133 62.6631 37.32C61.9165 36.6 61.5431 35.72 61.5431 34.68C61.5431 33.6133 61.9165 32.7333 62.6631 32.04C63.4365 31.32 64.4231 30.96 65.6231 30.96C66.7965 30.96 67.7565 31.32 68.5031 32.04C69.2765 32.7333 69.6631 33.6133 69.6631 34.68C69.6631 35.72 69.2765 36.6 68.5031 37.32C67.7565 38.0133 66.7965 38.36 65.6231 38.36ZM69.0231 40.68V63H62.1831V40.68H69.0231ZM86.42 57.2V63H82.94C80.46 63 78.5267 62.4 77.14 61.2C75.7533 59.9733 75.06 57.9867 75.06 55.24V46.36H72.34V40.68H75.06V35.24H81.9V40.68H86.38V46.36H81.9V55.32C81.9 55.9867 82.06 56.4667 82.38 56.76C82.7 57.0533 83.2333 57.2 83.98 57.2H86.42ZM113.03 40.68L99.03 73.6H91.67L96.79 62.24L87.71 40.68H95.35L100.51 54.64L105.63 40.68H113.03ZM114.143 51.8C114.143 49.5067 114.57 47.4933 115.423 45.76C116.303 44.0267 117.49 42.6933 118.983 41.76C120.477 40.8267 122.143 40.36 123.983 40.36C125.557 40.36 126.93 40.68 128.103 41.32C129.303 41.96 130.223 42.8 130.863 43.84V40.68H137.703V63H130.863V59.84C130.197 60.88 129.263 61.72 128.063 62.36C126.89 63 125.517 63.32 123.943 63.32C122.13 63.32 120.477 62.8533 118.983 61.92C117.49 60.96 116.303 59.6133 115.423 57.88C114.57 56.12 114.143 54.0933 114.143 51.8ZM130.863 51.84C130.863 50.1333 130.383 48.7867 129.423 47.8C128.49 46.8133 127.343 46.32 125.983 46.32C124.623 46.32 123.463 46.8133 122.503 47.8C121.57 48.76 121.103 50.0933 121.103 51.8C121.103 53.5067 121.57 54.8667 122.503 55.88C123.463 56.8667 124.623 57.36 125.983 57.36C127.343 57.36 128.49 56.8667 129.423 55.88C130.383 54.8933 130.863 53.5467 130.863 51.84ZM149.492 43.84C150.132 42.8 151.052 41.96 152.252 41.32C153.452 40.68 154.825 40.36 156.372 40.36C158.212 40.36 159.879 40.8267 161.372 41.76C162.865 42.6933 164.039 44.0267 164.892 45.76C165.772 47.4933 166.212 49.5067 166.212 51.8C166.212 54.0933 165.772 56.12 164.892 57.88C164.039 59.6133 162.865 60.96 161.372 61.92C159.879 62.8533 158.212 63.32 156.372 63.32C154.799 63.32 153.425 63.0133 152.252 62.4C151.079 61.76 150.159 60.92 149.492 59.88V63H142.652V33.4H149.492V43.84ZM159.252 51.8C159.252 50.0933 158.772 48.76 157.812 47.8C156.879 46.8133 155.719 46.32 154.332 46.32C152.972 46.32 151.812 46.8133 150.852 47.8C149.919 48.7867 149.452 50.1333 149.452 51.84C149.452 53.5467 149.919 54.8933 150.852 55.88C151.812 56.8667 152.972 57.36 154.332 57.36C155.692 57.36 156.852 56.8667 157.812 55.88C158.772 54.8667 159.252 53.5067 159.252 51.8ZM176.64 33.4V63H169.8V33.4H176.64ZM202.637 51.48C202.637 52.12 202.597 52.7867 202.517 53.48H187.037C187.144 54.8667 187.584 55.9333 188.357 56.68C189.157 57.4 190.131 57.76 191.277 57.76C192.984 57.76 194.171 57.04 194.837 55.6H202.117C201.744 57.0667 201.064 58.3867 200.077 59.56C199.117 60.7333 197.904 61.6533 196.437 62.32C194.971 62.9867 193.331 63.32 191.517 63.32C189.331 63.32 187.384 62.8533 185.677 61.92C183.971 60.9867 182.637 59.6533 181.677 57.92C180.717 56.1867 180.237 54.16 180.237 51.84C180.237 49.52 180.704 47.4933 181.637 45.76C182.597 44.0267 183.931 42.6933 185.637 41.76C187.344 40.8267 189.304 40.36 191.517 40.36C193.677 40.36 195.597 40.8133 197.277 41.72C198.957 42.6267 200.264 43.92 201.197 45.6C202.157 47.28 202.637 49.24 202.637 51.48ZM195.637 49.68C195.637 48.5067 195.237 47.5733 194.437 46.88C193.637 46.1867 192.637 45.84 191.437 45.84C190.291 45.84 189.317 46.1733 188.517 46.84C187.744 47.5067 187.264 48.4533 187.077 49.68H195.637ZM100.953 127.8L97.3527 122.96C96.286 123.173 95.246 123.28 94.2327 123.28C91.5927 123.28 89.166 122.667 86.9527 121.44C84.766 120.213 83.0193 118.507 81.7127 116.32C80.4327 114.107 79.7927 111.627 79.7927 108.88C79.7927 106.133 80.4327 103.667 81.7127 101.48C83.0193 99.2933 84.766 97.5867 86.9527 96.36C89.166 95.1333 91.5927 94.52 94.2327 94.52C96.8727 94.52 99.286 95.1333 101.473 96.36C103.686 97.5867 105.419 99.2933 106.673 101.48C107.953 103.667 108.593 106.133 108.593 108.88C108.593 111.28 108.099 113.48 107.113 115.48C106.153 117.453 104.806 119.093 103.073 120.4L109.233 127.8H100.953ZM86.7927 108.88C86.7927 111.36 87.4593 113.347 88.7927 114.84C90.1527 116.307 91.966 117.04 94.2327 117.04C96.4727 117.04 98.2593 116.293 99.5927 114.8C100.953 113.307 101.633 111.333 101.633 108.88C101.633 106.4 100.953 104.427 99.5927 102.96C98.2593 101.467 96.4727 100.72 94.2327 100.72C91.966 100.72 90.1527 101.453 88.7927 102.92C87.4593 104.387 86.7927 106.373 86.7927 108.88ZM122.636 123.32C120.449 123.32 118.476 122.853 116.716 121.92C114.983 120.987 113.609 119.653 112.596 117.92C111.609 116.187 111.116 114.16 111.116 111.84C111.116 109.547 111.623 107.533 112.636 105.8C113.649 104.04 115.036 102.693 116.796 101.76C118.556 100.827 120.529 100.36 122.716 100.36C124.903 100.36 126.876 100.827 128.636 101.76C130.396 102.693 131.783 104.04 132.796 105.8C133.809 107.533 134.316 109.547 134.316 111.84C134.316 114.133 133.796 116.16 132.756 117.92C131.743 119.653 130.343 120.987 128.556 121.92C126.796 122.853 124.823 123.32 122.636 123.32ZM122.636 117.4C123.943 117.4 125.049 116.92 125.956 115.96C126.889 115 127.356 113.627 127.356 111.84C127.356 110.053 126.903 108.68 125.996 107.72C125.116 106.76 124.023 106.28 122.716 106.28C121.383 106.28 120.276 106.76 119.396 107.72C118.516 108.653 118.076 110.027 118.076 111.84C118.076 113.627 118.503 115 119.356 115.96C120.236 116.92 121.329 117.4 122.636 117.4ZM144.785 117.72H153.745V123H137.945V94.92H144.785V117.72Z" fill="black"/>
<path d="M32.3544 41.52L33.2285 42.0056L33.231 42.0011L32.3544 41.52ZM37.3544 36.44L37.8446 37.3116L37.8482 37.3096L37.3544 36.44ZM53.2344 37.24L53.83 36.4368L53.83 36.4368L53.2344 37.24ZM57.9944 44.44V45.44H59.2916L58.9615 44.1855L57.9944 44.44ZM50.4744 44.44L49.5719 44.8707L49.8436 45.44H50.4744V44.44ZM48.0744 41.76L47.5565 42.6156L47.5664 42.6214L48.0744 41.76ZM39.4744 43.04L40.221 43.7052L40.221 43.7052L39.4744 43.04ZM39.4744 54.8L38.7277 55.4652L39.4744 54.8ZM48.0744 56.08L47.5664 55.2186L47.5566 55.2245L48.0744 56.08ZM50.4744 53.4V52.4H49.8436L49.5719 52.9693L50.4744 53.4ZM57.9944 53.4L58.9615 53.6545L59.2916 52.4H57.9944V53.4ZM53.2344 60.6L53.8242 61.4076L53.83 61.4032L53.2344 60.6ZM37.3544 61.4L36.8559 62.2669L36.8623 62.2706L36.8687 62.2742L37.3544 61.4ZM32.3544 56.32L33.2285 55.8344L33.2285 55.8344L32.3544 56.32ZM31.5544 48.92C31.5544 46.2954 32.1208 43.9996 33.2285 42.0056L31.4802 41.0344C30.188 43.3604 29.5544 45.9979 29.5544 48.92H31.5544ZM33.231 42.0011C34.343 39.9748 35.8773 38.4182 37.8446 37.3116L36.8641 35.5684C34.5648 36.8618 32.7657 38.6918 31.4777 41.0389L33.231 42.0011ZM37.8482 37.3096C39.8436 36.1764 42.1106 35.6 44.6744 35.6V33.6C41.7981 33.6 39.1851 34.2503 36.8606 35.5704L37.8482 37.3096ZM44.6744 35.6C47.822 35.6 50.4594 36.4271 52.6387 38.0432L53.83 36.4368C51.2626 34.5328 48.1935 33.6 44.6744 33.6V35.6ZM52.6387 38.0432C54.8173 39.6588 56.2812 41.8592 57.0273 44.6945L58.9615 44.1855C58.1076 40.9408 56.3981 38.3412 53.83 36.4368L52.6387 38.0432ZM57.9944 43.44H50.4744V45.44H57.9944V43.44ZM51.3769 44.0093C50.738 42.6708 49.8071 41.6209 48.5824 40.8986L47.5664 42.6214C48.4217 43.1258 49.0907 43.8625 49.5719 44.8707L51.3769 44.0093ZM48.5922 40.9045C47.4069 40.1871 46.0642 39.84 44.5944 39.84V41.84C45.7379 41.84 46.7152 42.1063 47.5566 42.6155L48.5922 40.9045ZM44.5944 39.84C42.2258 39.84 40.2391 40.6783 38.7277 42.3748L40.221 43.7052C41.323 42.4683 42.7496 41.84 44.5944 41.84V39.84ZM38.7277 42.3748C37.2201 44.067 36.5144 46.2848 36.5144 48.92H38.5144C38.5144 46.6485 39.1153 44.9463 40.221 43.7052L38.7277 42.3748ZM36.5144 48.92C36.5144 51.5552 37.2201 53.773 38.7277 55.4652L40.221 54.1348C39.1153 52.8937 38.5144 51.1915 38.5144 48.92H36.5144ZM38.7277 55.4652C40.2391 57.1617 42.2258 58 44.5944 58V56C42.7496 56 41.323 55.3717 40.221 54.1348L38.7277 55.4652ZM44.5944 58C46.0642 58 47.4069 57.6529 48.5922 56.9355L47.5566 55.2245C46.7152 55.7337 45.7379 56 44.5944 56V58ZM48.5824 56.9414C49.8071 56.2191 50.738 55.1692 51.3769 53.8307L49.5719 52.9693C49.0907 53.9775 48.4217 54.7142 47.5664 55.2186L48.5824 56.9414ZM50.4744 54.4H57.9944V52.4H50.4744V54.4ZM57.0273 53.1455C56.2812 55.9808 54.8173 58.1812 52.6387 59.7968L53.83 61.4032C56.3981 59.4988 58.1076 56.8992 58.9615 53.6545L57.0273 53.1455ZM52.6446 59.7924C50.465 61.3843 47.8254 62.2 44.6744 62.2V64.2C48.1901 64.2 51.2571 63.2824 53.8242 61.4076L52.6446 59.7924ZM44.6744 62.2C42.1068 62.2 39.8369 61.6352 37.84 60.5258L36.8687 62.2742C39.1919 63.5648 41.802 64.2 44.6744 64.2V62.2ZM37.8528 60.5331C35.8777 59.3974 34.3407 57.8362 33.2285 55.8344L31.4802 56.8056C32.7681 59.1238 34.5643 60.9493 36.8559 62.2669L37.8528 60.5331ZM33.2285 55.8344C32.1208 53.8404 31.5544 51.5446 31.5544 48.92H29.5544C29.5544 51.8421 30.188 54.4796 31.4802 56.8056L33.2285 55.8344ZM62.6631 37.32L61.969 38.0398L61.9821 38.0524L61.9956 38.0646L62.6631 37.32ZM62.6631 32.04L63.3436 32.7728L63.3445 32.7719L62.6631 32.04ZM68.5031 32.04L67.809 32.7598L67.8221 32.7724L67.8356 32.7846L68.5031 32.04ZM68.5031 37.32L69.1836 38.0528L69.1845 38.0519L68.5031 37.32ZM69.0231 40.68H70.0231V39.68H69.0231V40.68ZM69.0231 63V64H70.0231V63H69.0231ZM62.1831 63H61.1831V64H62.1831V63ZM62.1831 40.68V39.68H61.1831V40.68H62.1831ZM65.6231 37.36C64.6287 37.36 63.8923 37.079 63.3307 36.5754L61.9956 38.0646C62.9806 38.9477 64.2175 39.36 65.6231 39.36V37.36ZM63.3573 36.6002C62.8066 36.0692 62.5431 35.4493 62.5431 34.68H60.5431C60.5431 35.9907 61.0263 37.1308 61.969 38.0398L63.3573 36.6002ZM62.5431 34.68C62.5431 33.8767 62.8112 33.2671 63.3436 32.7728L61.9827 31.3072C61.0217 32.1995 60.5431 33.3499 60.5431 34.68H62.5431ZM63.3445 32.7719C63.9074 32.2478 64.639 31.96 65.6231 31.96V29.96C64.2072 29.96 62.9655 30.3922 61.9817 31.3081L63.3445 32.7719ZM65.6231 31.96C66.5743 31.96 67.2736 32.2436 67.809 32.7598L69.1973 31.3202C68.2393 30.3964 67.0186 29.96 65.6231 29.96V31.96ZM67.8356 32.7846C68.3909 33.2825 68.6631 33.8887 68.6631 34.68H70.6631C70.6631 33.3379 70.162 32.1842 69.1707 31.2954L67.8356 32.7846ZM68.6631 34.68C68.6631 35.4374 68.3955 36.0538 67.8217 36.5881L69.1845 38.0519C70.1574 37.1462 70.6631 36.0026 70.6631 34.68H68.6631ZM67.8227 36.5872C67.289 37.0828 66.585 37.36 65.6231 37.36V39.36C67.0079 39.36 68.2239 38.9439 69.1836 38.0528L67.8227 36.5872ZM68.0231 40.68V63H70.0231V40.68H68.0231ZM69.0231 62H62.1831V64H69.0231V62ZM63.1831 63V40.68H61.1831V63H63.1831ZM62.1831 41.68H69.0231V39.68H62.1831V41.68ZM86.42 57.2H87.42V56.2H86.42V57.2ZM86.42 63V64H87.42V63H86.42ZM77.14 61.2L76.4774 61.949L76.4856 61.9562L77.14 61.2ZM75.06 46.36H76.06V45.36H75.06V46.36ZM72.34 46.36H71.34V47.36H72.34V46.36ZM72.34 40.68V39.68H71.34V40.68H72.34ZM75.06 40.68V41.68H76.06V40.68H75.06ZM75.06 35.24V34.24H74.06V35.24H75.06ZM81.9 35.24H82.9V34.24H81.9V35.24ZM81.9 40.68H80.9V41.68H81.9V40.68ZM86.38 40.68H87.38V39.68H86.38V40.68ZM86.38 46.36V47.36H87.38V46.36H86.38ZM81.9 46.36V45.36H80.9V46.36H81.9ZM82.38 56.76L81.7043 57.4972L81.7043 57.4972L82.38 56.76ZM85.42 57.2V63H87.42V57.2H85.42ZM86.42 62H82.94V64H86.42V62ZM82.94 62C80.6151 62 78.9438 61.4386 77.7944 60.4438L76.4856 61.9562C78.1095 63.3614 80.3049 64 82.94 64V62ZM77.8026 60.451C76.7169 59.4906 76.06 57.8404 76.06 55.24H74.06C74.06 58.1329 74.7898 60.4561 76.4774 61.949L77.8026 60.451ZM76.06 55.24V46.36H74.06V55.24H76.06ZM75.06 45.36H72.34V47.36H75.06V45.36ZM73.34 46.36V40.68H71.34V46.36H73.34ZM72.34 41.68H75.06V39.68H72.34V41.68ZM76.06 40.68V35.24H74.06V40.68H76.06ZM75.06 36.24H81.9V34.24H75.06V36.24ZM80.9 35.24V40.68H82.9V35.24H80.9ZM81.9 41.68H86.38V39.68H81.9V41.68ZM85.38 40.68V46.36H87.38V40.68H85.38ZM86.38 45.36H81.9V47.36H86.38V45.36ZM80.9 46.36V55.32H82.9V46.36H80.9ZM80.9 55.32C80.9 56.118 81.0888 56.9329 81.7043 57.4972L83.0557 56.0228C83.0312 56.0004 82.9 55.8554 82.9 55.32H80.9ZM81.7043 57.4972C82.3025 58.0455 83.149 58.2 83.98 58.2V56.2C83.3176 56.2 83.0975 56.0612 83.0557 56.0228L81.7043 57.4972ZM83.98 58.2H86.42V56.2H83.98V58.2ZM113.03 40.68L113.95 41.0714L114.542 39.68H113.03V40.68ZM99.03 73.6V74.6H99.6914L99.9502 73.9914L99.03 73.6ZM91.67 73.6L90.7583 73.1891L90.1224 74.6H91.67V73.6ZM96.79 62.24L97.7017 62.6509L97.8808 62.2535L97.7116 61.8519L96.79 62.24ZM87.71 40.68V39.68H86.2038L86.7884 41.0681L87.71 40.68ZM95.35 40.68L96.288 40.3333L96.0465 39.68H95.35V40.68ZM100.51 54.64L99.572 54.9867L100.514 57.5342L101.449 54.9843L100.51 54.64ZM105.63 40.68V39.68H104.932L104.691 40.3357L105.63 40.68ZM112.11 40.2886L98.1098 73.2086L99.9502 73.9914L113.95 41.0714L112.11 40.2886ZM99.03 72.6H91.67V74.6H99.03V72.6ZM92.5817 74.0109L97.7017 62.6509L95.8783 61.8291L90.7583 73.1891L92.5817 74.0109ZM97.7116 61.8519L88.6316 40.2919L86.7884 41.0681L95.8684 62.6281L97.7116 61.8519ZM87.71 41.68H95.35V39.68H87.71V41.68ZM94.412 41.0267L99.572 54.9867L101.448 54.2933L96.288 40.3333L94.412 41.0267ZM101.449 54.9843L106.569 41.0243L104.691 40.3357L99.5712 54.2957L101.449 54.9843ZM105.63 41.68H113.03V39.68H105.63V41.68ZM115.423 45.76L114.532 45.3073L114.526 45.3183L115.423 45.76ZM118.983 41.76L119.513 42.608L119.513 42.608L118.983 41.76ZM128.103 41.32L127.625 42.1979L127.633 42.2024L128.103 41.32ZM130.863 43.84L130.012 44.3641L131.863 47.373V43.84H130.863ZM130.863 40.68V39.68H129.863V40.68H130.863ZM137.703 40.68H138.703V39.68H137.703V40.68ZM137.703 63V64H138.703V63H137.703ZM130.863 63H129.863V64H130.863V63ZM130.863 59.84H131.863V56.427L130.022 59.3003L130.863 59.84ZM128.063 62.36L127.593 61.4776L127.585 61.4821L128.063 62.36ZM118.983 61.92L118.443 62.7612L118.453 62.768L118.983 61.92ZM115.423 57.88L114.524 58.3163L114.528 58.3245L114.532 58.3327L115.423 57.88ZM129.423 47.8L128.697 48.4873L128.707 48.4974L129.423 47.8ZM122.503 47.8L121.787 47.1026L121.786 47.1029L122.503 47.8ZM122.503 55.88L121.768 56.5575L121.777 56.5675L121.787 56.5774L122.503 55.88ZM129.423 55.88L128.707 55.1826L128.697 55.1928L129.423 55.88ZM115.143 51.8C115.143 49.6314 115.546 47.7742 116.321 46.2017L114.526 45.3183C113.594 47.2125 113.143 49.3819 113.143 51.8H115.143ZM116.315 46.2127C117.122 44.6242 118.19 43.4351 119.513 42.608L118.453 40.912C116.79 41.9516 115.485 43.4291 114.532 45.3073L116.315 46.2127ZM119.513 42.608C120.841 41.7786 122.322 41.36 123.983 41.36V39.36C121.965 39.36 120.113 39.8748 118.453 40.912L119.513 42.608ZM123.983 41.36C125.419 41.36 126.622 41.6511 127.625 42.1979L128.582 40.4421C127.238 39.7089 125.694 39.36 123.983 39.36V41.36ZM127.633 42.2024C128.695 42.7686 129.475 43.4919 130.012 44.3641L131.715 43.3159C130.972 42.1081 129.912 41.1514 128.574 40.4376L127.633 42.2024ZM131.863 43.84V40.68H129.863V43.84H131.863ZM130.863 41.68H137.703V39.68H130.863V41.68ZM136.703 40.68V63H138.703V40.68H136.703ZM137.703 62H130.863V64H137.703V62ZM131.863 63V59.84H129.863V63H131.863ZM130.022 59.3003C129.456 60.182 128.657 60.9099 127.593 61.4776L128.534 63.2424C129.869 62.5301 130.937 61.578 131.705 60.3797L130.022 59.3003ZM127.585 61.4821C126.582 62.0289 125.379 62.32 123.943 62.32V64.32C125.654 64.32 127.198 63.9711 128.542 63.2379L127.585 61.4821ZM123.943 62.32C122.312 62.32 120.843 61.9029 119.513 61.072L118.453 62.768C120.111 63.8037 121.949 64.32 123.943 64.32V62.32ZM119.524 61.0788C118.194 60.2238 117.123 59.0178 116.315 57.4273L114.532 58.3327C115.484 60.2089 116.786 61.6962 118.443 62.7612L119.524 61.0788ZM116.323 57.4437C115.546 55.8413 115.143 53.9681 115.143 51.8H113.143C113.143 54.2185 113.594 56.3987 114.524 58.3163L116.323 57.4437ZM131.863 51.84C131.863 49.9387 131.323 48.3184 130.14 47.1026L128.707 48.4974C129.444 49.2549 129.863 50.3279 129.863 51.84H131.863ZM130.15 47.1128C129.027 45.9262 127.618 45.32 125.983 45.32V47.32C127.069 47.32 127.953 47.7005 128.697 48.4872L130.15 47.1128ZM125.983 45.32C124.35 45.32 122.932 45.9252 121.787 47.1026L123.22 48.4974C123.994 47.7015 124.897 47.32 125.983 47.32V45.32ZM121.786 47.1029C120.625 48.2971 120.103 49.9077 120.103 51.8H122.103C122.103 50.279 122.515 49.2229 123.22 48.4971L121.786 47.1029ZM120.103 51.8C120.103 53.695 120.626 55.318 121.768 56.5575L123.239 55.2025C122.514 54.4153 122.103 53.3184 122.103 51.8H120.103ZM121.787 56.5774C122.932 57.7548 124.35 58.36 125.983 58.36V56.36C124.897 56.36 123.994 55.9785 123.22 55.1826L121.787 56.5774ZM125.983 58.36C127.618 58.36 129.027 57.7538 130.15 56.5672L128.697 55.1928C127.953 55.9795 127.069 56.36 125.983 56.36V58.36ZM130.14 56.5774C131.323 55.3616 131.863 53.7413 131.863 51.84H129.863C129.863 53.3521 129.444 54.4251 128.707 55.1826L130.14 56.5774ZM149.492 43.84H148.492V47.373L150.344 44.3641L149.492 43.84ZM152.252 41.32L151.781 40.4376L151.781 40.4376L152.252 41.32ZM161.372 41.76L160.842 42.608L160.842 42.608L161.372 41.76ZM164.892 45.76L163.995 46.2017L164 46.2127L164.892 45.76ZM164.892 57.88L163.997 57.4328L163.995 57.4383L164.892 57.88ZM161.372 61.92L161.902 62.7681L161.913 62.7612L161.372 61.92ZM152.252 62.4L151.773 63.2779L151.781 63.2821L151.789 63.2862L152.252 62.4ZM149.492 59.88L150.334 59.3403L148.492 56.467V59.88H149.492ZM149.492 63V64H150.492V63H149.492ZM142.652 63H141.652V64H142.652V63ZM142.652 33.4V32.4H141.652V33.4H142.652ZM149.492 33.4H150.492V32.4H149.492V33.4ZM157.812 47.8L157.085 48.4872L157.095 48.4973L157.105 48.5071L157.812 47.8ZM150.852 47.8L150.135 47.1026L150.125 47.1128L150.852 47.8ZM150.852 55.88L150.125 56.5673L150.135 56.5774L150.852 55.88ZM157.812 55.88L158.529 56.5774L158.538 56.5677L157.812 55.88ZM150.344 44.3641C150.88 43.4919 151.661 42.7686 152.722 42.2024L151.781 40.4376C150.443 41.1514 149.383 42.1081 148.64 43.3159L150.344 44.3641ZM152.722 42.2024C153.759 41.6496 154.967 41.36 156.372 41.36V39.36C154.684 39.36 153.145 39.7104 151.781 40.4376L152.722 42.2024ZM156.372 41.36C158.033 41.36 159.515 41.7786 160.842 42.608L161.902 40.912C160.242 39.8748 158.39 39.36 156.372 39.36V41.36ZM160.842 42.608C162.162 43.4332 163.215 44.6185 163.995 46.2017L165.789 45.3183C164.862 43.4348 163.568 41.9534 161.902 40.912L160.842 42.608ZM164 46.2127C164.797 47.7826 165.212 49.6358 165.212 51.8H167.212C167.212 49.3775 166.746 47.204 165.784 45.3073L164 46.2127ZM165.212 51.8C165.212 53.9637 164.797 55.8329 163.997 57.4328L165.786 58.3272C166.746 56.4071 167.212 54.2229 167.212 51.8H165.212ZM163.995 57.4383C163.214 59.0235 162.158 60.2257 160.831 61.0788L161.913 62.7612C163.572 61.6943 164.863 60.2032 165.789 58.3217L163.995 57.4383ZM160.842 61.072C159.515 61.9014 158.033 62.32 156.372 62.32V64.32C158.39 64.32 160.242 63.8052 161.902 62.768L160.842 61.072ZM156.372 62.32C154.93 62.32 153.721 62.0395 152.715 61.5138L151.789 63.2862C153.13 63.9872 154.667 64.32 156.372 64.32V62.32ZM152.731 61.5221C151.692 60.9558 150.902 60.2274 150.334 59.3403L148.65 60.4197C149.415 61.6126 150.465 62.5642 151.773 63.2779L152.731 61.5221ZM148.492 59.88V63H150.492V59.88H148.492ZM149.492 62H142.652V64H149.492V62ZM143.652 63V33.4H141.652V63H143.652ZM142.652 34.4H149.492V32.4H142.652V34.4ZM148.492 33.4V43.84H150.492V33.4H148.492ZM160.252 51.8C160.252 49.9 159.712 48.2858 158.519 47.0929L157.105 48.5071C157.832 49.2342 158.252 50.2867 158.252 51.8H160.252ZM158.538 47.1128C157.412 45.9218 155.987 45.32 154.332 45.32V47.32C155.45 47.32 156.345 47.7049 157.085 48.4872L158.538 47.1128ZM154.332 45.32C152.698 45.32 151.281 45.9252 150.135 47.1026L151.569 48.4974C152.343 47.7015 153.246 47.32 154.332 47.32V45.32ZM150.125 47.1128C148.974 48.3296 148.452 49.9463 148.452 51.84H150.452C150.452 50.3204 150.863 49.2437 151.578 48.4872L150.125 47.1128ZM148.452 51.84C148.452 53.7337 148.974 55.3504 150.125 56.5672L151.578 55.1928C150.863 54.4363 150.452 53.3596 150.452 51.84H148.452ZM150.135 56.5774C151.281 57.7548 152.698 58.36 154.332 58.36V56.36C153.246 56.36 152.343 55.9785 151.569 55.1826L150.135 56.5774ZM154.332 58.36C155.966 58.36 157.383 57.7548 158.529 56.5774L157.095 55.1826C156.321 55.9785 155.418 56.36 154.332 56.36V58.36ZM158.538 56.5677C159.711 55.3292 160.252 53.7024 160.252 51.8H158.252C158.252 53.3109 157.833 54.4041 157.086 55.1923L158.538 56.5677ZM176.64 33.4H177.64V32.4H176.64V33.4ZM176.64 63V64H177.64V63H176.64ZM169.8 63H168.8V64H169.8V63ZM169.8 33.4V32.4H168.8V33.4H169.8ZM175.64 33.4V63H177.64V33.4H175.64ZM176.64 62H169.8V64H176.64V62ZM170.8 63V33.4H168.8V63H170.8ZM169.8 34.4H176.64V32.4H169.8V34.4ZM202.517 53.48V54.48H203.408L203.511 53.5946L202.517 53.48ZM187.037 53.48V52.48H185.957L186.04 53.5567L187.037 53.48ZM188.357 56.68L187.663 57.3994L187.675 57.4116L187.688 57.4233L188.357 56.68ZM194.837 55.6V54.6H194.198L193.93 55.1799L194.837 55.6ZM202.117 55.6L203.086 55.8467L203.404 54.6H202.117V55.6ZM200.077 59.56L199.312 58.9163L199.303 58.9268L200.077 59.56ZM196.437 62.32L196.851 63.2304L196.437 62.32ZM185.677 61.92L185.197 62.7974L185.197 62.7974L185.677 61.92ZM181.677 57.92L182.552 57.4355L182.552 57.4355L181.677 57.92ZM181.637 45.76L180.762 45.2755L180.757 45.2859L181.637 45.76ZM185.637 41.76L186.117 42.6374L186.117 42.6374L185.637 41.76ZM197.277 41.72L196.802 42.6L196.802 42.6L197.277 41.72ZM201.197 45.6L200.323 46.0857L200.329 46.0961L201.197 45.6ZM195.637 49.68V50.68H196.637V49.68H195.637ZM194.437 46.88L195.092 46.1243L195.092 46.1243L194.437 46.88ZM188.517 46.84L187.877 46.0718L187.871 46.0771L187.864 46.0826L188.517 46.84ZM187.077 49.68L186.089 49.5296L185.914 50.68H187.077V49.68ZM201.637 51.48C201.637 52.0784 201.6 52.7067 201.524 53.3654L203.511 53.5946C203.595 52.8666 203.637 52.1616 203.637 51.48H201.637ZM202.517 52.48H187.037V54.48H202.517V52.48ZM186.04 53.5567C186.16 55.1139 186.667 56.4377 187.663 57.3994L189.052 55.9606C188.501 55.429 188.128 54.6195 188.034 53.4033L186.04 53.5567ZM187.688 57.4233C188.685 58.32 189.901 58.76 191.277 58.76V56.76C190.36 56.76 189.63 56.48 189.026 55.9367L187.688 57.4233ZM191.277 58.76C192.272 58.76 193.184 58.5494 193.966 58.0749C194.753 57.5976 195.34 56.8938 195.745 56.0201L193.93 55.1799C193.668 55.7462 193.328 56.1224 192.928 56.3651C192.524 56.6106 191.99 56.76 191.277 56.76V58.76ZM194.837 56.6H202.117V54.6H194.837V56.6ZM201.148 55.3533C200.812 56.6721 200.203 57.8568 199.312 58.9164L200.843 60.2036C201.925 58.9165 202.675 57.4613 203.086 55.8467L201.148 55.3533ZM199.303 58.9268C198.446 59.9739 197.359 60.8024 196.023 61.4096L196.851 63.2304C198.448 62.5043 199.788 61.4928 200.851 60.1932L199.303 58.9268ZM196.023 61.4096C194.702 62.0102 193.206 62.32 191.517 62.32V64.32C193.455 64.32 195.239 63.9631 196.851 63.2304L196.023 61.4096ZM191.517 62.32C189.477 62.32 187.699 61.8859 186.157 61.0426L185.197 62.7974C187.069 63.8207 189.184 64.32 191.517 64.32V62.32ZM186.157 61.0426C184.62 60.202 183.422 59.0064 182.552 57.4355L180.802 58.4045C181.852 60.3003 183.321 61.7714 185.197 62.7974L186.157 61.0426ZM182.552 57.4355C181.687 55.874 181.237 54.0196 181.237 51.84H179.237C179.237 54.3004 179.747 56.4994 180.802 58.4045L182.552 57.4355ZM181.237 51.84C181.237 49.6559 181.676 47.7977 182.518 46.2341L180.757 45.2859C179.732 47.1889 179.237 49.3841 179.237 51.84H181.237ZM182.512 46.2445C183.382 44.6736 184.58 43.478 186.117 42.6374L185.157 40.8826C183.281 41.9086 181.812 43.3797 180.762 45.2755L182.512 46.2445ZM186.117 42.6374C187.657 41.795 189.448 41.36 191.517 41.36V39.36C189.16 39.36 187.03 39.8583 185.157 40.8826L186.117 42.6374ZM191.517 41.36C193.533 41.36 195.286 41.782 196.802 42.6L197.752 40.84C195.908 39.8447 193.821 39.36 191.517 39.36V41.36ZM196.802 42.6C198.313 43.4154 199.482 44.5713 200.323 46.0856L202.071 45.1144C201.046 43.2687 199.601 41.8379 197.752 40.84L196.802 42.6ZM200.329 46.0961C201.19 47.6027 201.637 49.3863 201.637 51.48H203.637C203.637 49.0937 203.125 46.9573 202.065 45.1039L200.329 46.0961ZM196.637 49.68C196.637 48.2519 196.137 47.0295 195.092 46.1243L193.782 47.6357C194.338 48.1171 194.637 48.7614 194.637 49.68H196.637ZM195.092 46.1243C194.086 45.2523 192.844 44.84 191.437 44.84V46.84C192.431 46.84 193.188 47.121 193.782 47.6357L195.092 46.1243ZM191.437 44.84C190.082 44.84 188.875 45.2399 187.877 46.0718L189.157 47.6082C189.759 47.1068 190.499 46.84 191.437 46.84V44.84ZM187.864 46.0826C186.873 46.9368 186.303 48.1199 186.089 49.5296L188.066 49.8304C188.225 48.7868 188.614 48.0766 189.17 47.5974L187.864 46.0826ZM187.077 50.68H195.637V48.68H187.077V50.68ZM100.953 127.8L100.15 128.397L100.45 128.8H100.953V127.8ZM97.3527 122.96L98.155 122.363L97.7773 121.855L97.1565 121.979L97.3527 122.96ZM86.9527 121.44L86.4634 122.312L86.4679 122.315L86.9527 121.44ZM81.7127 116.32L80.847 116.821L80.8506 116.827L80.8542 116.833L81.7127 116.32ZM81.7127 101.48L80.8542 100.967L80.8496 100.975L81.7127 101.48ZM86.9527 96.36L86.4679 95.4853L86.4634 95.4879L86.9527 96.36ZM101.473 96.36L100.983 97.2322L100.988 97.2347L101.473 96.36ZM106.673 101.48L105.805 101.977L105.81 101.985L106.673 101.48ZM107.113 115.48L106.216 115.038L106.213 115.043L107.113 115.48ZM103.073 120.4L102.471 119.601L101.633 120.233L102.304 121.04L103.073 120.4ZM109.233 127.8V128.8H111.366L110.001 127.16L109.233 127.8ZM88.7927 114.84L88.0467 115.506L88.053 115.513L88.0594 115.52L88.7927 114.84ZM99.5927 114.8L98.8533 114.127L98.8467 114.134L99.5927 114.8ZM99.5927 102.96L98.8467 103.626L98.853 103.633L98.8594 103.64L99.5927 102.96ZM88.7927 102.92L88.0594 102.24L88.0527 102.247L88.7927 102.92ZM101.755 127.203L98.155 122.363L96.5503 123.557L100.15 128.397L101.755 127.203ZM97.1565 121.979C96.1498 122.181 95.1755 122.28 94.2327 122.28V124.28C95.3165 124.28 96.4222 124.166 97.5488 123.941L97.1565 121.979ZM94.2327 122.28C91.7546 122.28 89.4959 121.706 87.4374 120.565L86.4679 122.315C88.8361 123.627 91.4307 124.28 94.2327 124.28V122.28ZM87.4419 120.568C85.4101 119.428 83.7897 117.846 82.5711 115.807L80.8542 116.833C82.249 119.167 84.1219 120.999 86.4634 122.312L87.4419 120.568ZM82.5783 115.819C81.3928 113.769 80.7927 111.464 80.7927 108.88H78.7927C78.7927 111.789 79.4725 114.444 80.847 116.821L82.5783 115.819ZM80.7927 108.88C80.7927 106.295 81.3929 104.006 82.5757 101.985L80.8496 100.975C79.4725 103.328 78.7927 105.971 78.7927 108.88H80.7927ZM82.5711 101.993C83.7897 99.9537 85.4101 98.3719 87.4419 97.2321L86.4634 95.4879C84.1219 96.8014 82.249 98.633 80.8542 100.967L82.5711 101.993ZM87.4374 97.2347C89.4959 96.0938 91.7546 95.52 94.2327 95.52V93.52C91.4307 93.52 88.8361 94.1729 86.4679 95.4853L87.4374 97.2347ZM94.2327 95.52C96.7107 95.52 98.9542 96.0938 100.983 97.2321L101.962 95.4879C99.6178 94.1729 97.0346 93.52 94.2327 93.52V95.52ZM100.988 97.2347C103.042 98.3732 104.643 99.9497 105.805 101.977L107.54 100.983C106.196 98.637 104.33 96.8001 101.957 95.4853L100.988 97.2347ZM105.81 101.985C106.992 104.006 107.593 106.295 107.593 108.88H109.593C109.593 105.971 108.913 103.328 107.536 100.975L105.81 101.985ZM107.593 108.88C107.593 111.138 107.13 113.185 106.216 115.038L108.009 115.922C109.069 113.775 109.593 111.422 109.593 108.88H107.593ZM106.213 115.043C105.322 116.875 104.076 118.391 102.471 119.601L103.675 121.199C105.536 119.796 106.984 118.031 108.012 115.917L106.213 115.043ZM102.304 121.04L108.464 128.44L110.001 127.16L103.841 119.76L102.304 121.04ZM109.233 126.8H100.953V128.8H109.233V126.8ZM85.7927 108.88C85.7927 111.545 86.5132 113.788 88.0467 115.506L89.5386 114.174C88.4055 112.905 87.7927 111.175 87.7927 108.88H85.7927ZM88.0594 115.52C89.6347 117.219 91.7286 118.04 94.2327 118.04V116.04C92.2034 116.04 90.6706 115.394 89.5259 114.16L88.0594 115.52ZM94.2327 118.04C96.7198 118.04 98.7918 117.198 100.339 115.466L98.8467 114.134C97.7269 115.388 96.2255 116.04 94.2327 116.04V118.04ZM100.332 115.473C101.894 113.758 102.633 111.526 102.633 108.88H100.633C100.633 111.14 100.011 112.855 98.8533 114.127L100.332 115.473ZM102.633 108.88C102.633 106.211 101.896 103.973 100.326 102.28L98.8594 103.64C100.009 104.88 100.633 106.589 100.633 108.88H102.633ZM100.339 102.294C98.7918 100.562 96.7198 99.72 94.2327 99.72V101.72C96.2255 101.72 97.7269 102.372 98.8467 103.626L100.339 102.294ZM94.2327 99.72C91.7286 99.72 89.6347 100.541 88.0594 102.24L89.5259 103.6C90.6706 102.366 92.2034 101.72 94.2327 101.72V99.72ZM88.0527 102.247C86.5112 103.943 85.7927 106.193 85.7927 108.88H87.7927C87.7927 106.554 88.4075 104.83 89.5326 103.593L88.0527 102.247ZM116.716 121.92L116.242 122.8L116.248 122.803L116.716 121.92ZM112.596 117.92L111.727 118.415L111.733 118.425L112.596 117.92ZM112.636 105.8L113.499 106.305L113.503 106.299L112.636 105.8ZM116.796 101.76L117.265 102.643L117.265 102.643L116.796 101.76ZM128.636 101.76L128.168 102.643L128.168 102.643L128.636 101.76ZM132.796 105.8L131.929 106.299L131.933 106.305L132.796 105.8ZM132.756 117.92L131.895 117.411L131.893 117.415L132.756 117.92ZM128.556 121.92L128.093 121.034L128.088 121.037L128.556 121.92ZM125.956 115.96L125.239 115.263L125.234 115.268L125.229 115.273L125.956 115.96ZM125.996 107.72L125.259 108.396L125.264 108.401L125.269 108.407L125.996 107.72ZM119.396 107.72L120.124 108.406L120.133 108.396L119.396 107.72ZM119.356 115.96L118.609 116.624L118.614 116.63L118.619 116.636L119.356 115.96ZM122.636 122.32C120.596 122.32 118.787 121.886 117.185 121.037L116.248 122.803C118.166 123.821 120.302 124.32 122.636 124.32V122.32ZM117.19 121.04C115.622 120.195 114.382 118.993 113.459 117.415L111.733 118.425C112.837 120.313 114.344 121.778 116.242 122.8L117.19 121.04ZM113.465 117.425C112.577 115.866 112.116 114.015 112.116 111.84H110.116C110.116 114.305 110.641 116.508 111.727 118.415L113.465 117.425ZM112.116 111.84C112.116 109.698 112.588 107.864 113.499 106.305L111.773 105.295C110.658 107.202 110.116 109.395 110.116 111.84H112.116ZM113.503 106.299C114.424 104.699 115.674 103.487 117.265 102.643L116.328 100.877C114.398 101.9 112.875 103.381 111.769 105.301L113.503 106.299ZM117.265 102.643C118.867 101.794 120.676 101.36 122.716 101.36V99.36C120.382 99.36 118.246 99.8594 116.328 100.877L117.265 102.643ZM122.716 101.36C124.756 101.36 126.566 101.794 128.168 102.643L129.105 100.877C127.187 99.8594 125.05 99.36 122.716 99.36V101.36ZM128.168 102.643C129.758 103.487 131.008 104.699 131.929 106.299L133.663 105.301C132.557 103.381 131.034 101.9 129.105 100.877L128.168 102.643ZM131.933 106.305C132.844 107.864 133.316 109.698 133.316 111.84H135.316C135.316 109.395 134.774 107.202 133.659 105.295L131.933 106.305ZM133.316 111.84C133.316 113.977 132.833 115.823 131.895 117.411L133.617 118.429C134.759 116.497 135.316 114.29 135.316 111.84H133.316ZM131.893 117.415C130.975 118.986 129.714 120.187 128.093 121.034L129.019 122.806C130.972 121.786 132.511 120.321 133.619 118.425L131.893 117.415ZM128.088 121.037C126.486 121.886 124.676 122.32 122.636 122.32V124.32C124.97 124.32 127.107 123.821 129.025 122.803L128.088 121.037ZM122.636 118.4C124.221 118.4 125.59 117.804 126.683 116.647L125.229 115.273C124.509 116.036 123.664 116.4 122.636 116.4V118.4ZM126.673 116.657C127.842 115.455 128.356 113.797 128.356 111.84H126.356C126.356 113.456 125.937 114.545 125.239 115.263L126.673 116.657ZM128.356 111.84C128.356 109.89 127.859 108.236 126.723 107.033L125.269 108.407C125.946 109.124 126.356 110.217 126.356 111.84H128.356ZM126.733 107.044C125.663 105.877 124.302 105.28 122.716 105.28V107.28C123.744 107.28 124.569 107.643 125.259 108.396L126.733 107.044ZM122.716 105.28C121.11 105.28 119.733 105.872 118.659 107.044L120.133 108.396C120.819 107.648 121.655 107.28 122.716 107.28V105.28ZM118.669 107.034C117.552 108.218 117.076 109.877 117.076 111.84H119.076C119.076 110.176 119.48 109.089 120.124 108.406L118.669 107.034ZM117.076 111.84C117.076 113.776 117.539 115.421 118.609 116.624L120.104 115.296C119.467 114.579 119.076 113.478 119.076 111.84H117.076ZM118.619 116.636C119.689 117.803 121.05 118.4 122.636 118.4V116.4C121.609 116.4 120.783 116.037 120.093 115.284L118.619 116.636ZM144.785 117.72H143.785V118.72H144.785V117.72ZM153.745 117.72H154.745V116.72H153.745V117.72ZM153.745 123V124H154.745V123H153.745ZM137.945 123H136.945V124H137.945V123ZM137.945 94.92V93.92H136.945V94.92H137.945ZM144.785 94.92H145.785V93.92H144.785V94.92ZM144.785 118.72H153.745V116.72H144.785V118.72ZM152.745 117.72V123H154.745V117.72H152.745ZM153.745 122H137.945V124H153.745V122ZM138.945 123V94.92H136.945V123H138.945ZM137.945 95.92H144.785V93.92H137.945V95.92ZM143.785 94.92V117.72H145.785V94.92H143.785Z" fill="black"/>
</g>
</g>
<defs>
<filter id="filter0_bd_103_614" x="0.554375" y="-15" width="232.083" height="188" filterUnits="userSpaceOnUse" color-interpolation-filters="sRGB">
<feFlood flood-opacity="0" result="BackgroundImageFix"/>
<feGaussianBlur in="BackgroundImageFix" stdDeviation="5"/>
<feComposite in2="SourceAlpha" operator="in" result="effect1_backgroundBlur_103_614"/>
<feColorMatrix in="SourceAlpha" type="matrix" values="0 0 0 0 0 0 0 0 0 0 0 0 0 0 0 0 0 0 127 0" result="hardAlpha"/>
<feOffset/>
<feGaussianBlur stdDeviation="15"/>
<feComposite in2="hardAlpha" operator="out"/>
<feColorMatrix type="matrix" values="0 0 0 0 0 0 0 0 0 0 0 0 0 0 0 0 0 0 0.1 0"/>
<feBlend mode="normal" in2="effect1_backgroundBlur_103_614" result="effect2_dropShadow_103_614"/>
<feBlend mode="normal" in="SourceGraphic" in2="effect2_dropShadow_103_614" result="shape"/>
</filter>
<filter id="filter1_d_103_614" x="26.5544" y="30.96" width="180.083" height="104.84" filterUnits="userSpaceOnUse" color-interpolation-filters="sRGB">
<feFlood flood-opacity="0" result="BackgroundImageFix"/>
<feColorMatrix in="SourceAlpha" type="matrix" values="0 0 0 0 0 0 0 0 0 0 0 0 0 0 0 0 0 0 127 0" result="hardAlpha"/>
<feOffset dy="4"/>
<feGaussianBlur stdDeviation="2"/>
<feComposite in2="hardAlpha" operator="out"/>
<feColorMatrix type="matrix" values="0 0 0 0 0 0 0 0 0 0 0 0 0 0 0 0 0 0 0.25 0"/>
<feBlend mode="normal" in2="BackgroundImageFix" result="effect1_dropShadow_103_614"/>
<feBlend mode="normal" in="SourceGraphic" in2="effect1_dropShadow_103_614" result="shape"/>
</filter>
</defs>
</svg>
